<svg width="30" height="31" viewBox="0 0 30 31" version="1.1" xmlns="http://www.w3.org/2000/svg" xmlns:xlink="http://www.w3.org/1999/xlink">
<title>Vector</title>
<desc>Created using Figma</desc>
<g id="Canvas" transform="translate(-2808 1196)">
<g id="Vector">
<use xlink:href="#path0_fill" transform="translate(2808 -1196)" fill="#172D44"/>
</g>
</g>
<defs>
<path id="path0_fill" fill-rule="evenodd" d="M 9.1177 18.0833C 6.8429 16.2879 5.28409 12.958 5.28409 10.2855C 5.28409 6.28912 8.13486 3.96929 10.8152 3.87758C 11.9262 3.86079 13.0993 4.13462 13.9777 4.61383C 13.7466 2.96308 12.9909 1.69596 12.2023 0.793083L 14.0081 0C 14.382 0.525708 14.7638 1.45829 15.0134 2.55621C 15.5194 1.6585 16.1337 0.926125 16.9619 0.453375C 17.8457 -0.0516667 19.3107 -0.0787917 20.2883 0.102042C 20.0412 0.951958 19.526 2.05633 18.3186 2.78225C 17.5762 3.22787 16.3807 3.4565 15.1693 3.36738C 15.2248 3.73292 15.2657 4.10879 15.2842 4.48725C 16.1852 4.01708 17.1865 3.86208 18.2473 3.87758C 20.9276 3.96929 23.7784 6.28912 23.7784 10.2855C 23.7784 12.958 22.2196 16.2879 19.9448 18.0833L 29.0625 18.0833L 29.0625 20.6667L 3.30256 20.6667C 2.93795 20.6667 2.64205 20.956 2.64205 21.3125C 2.64205 21.669 2.93795 21.9583 3.30256 21.9583L 29.0625 21.9583L 29.0625 24.5417L 4.62358 24.5417C 3.52977 24.5417 2.64205 25.4097 2.64205 26.4792C 2.64205 27.5487 3.52977 28.4167 4.62358 28.4167L 29.0625 28.4167L 29.0625 31L 4.62358 31C 2.07136 31 0 28.9747 0 26.4792C 0 25.4071 0.383097 24.4215 1.02115 23.6465C 0.392344 23.0588 0 22.2296 0 21.3125C 0 19.53 1.47955 18.0833 3.30256 18.0833L 9.1177 18.0833ZM 29.0625 27.125L 5.28409 27.125L 5.28409 25.8333L 29.0625 25.8333L 29.0625 27.125ZM 12.3859 6.975C 10.2155 8.56246 9.69763 11.4312 11.8311 15.5C 10.8337 14.9807 8.70026 12.856 8.72403 10.4044C 8.74517 8.23954 10.5906 6.87812 12.3859 6.975Z"/>
</defs>
</svg>
