<svg width="18" height="18" viewBox="0 0 18 18" version="1.1" xmlns="http://www.w3.org/2000/svg" xmlns:xlink="http://www.w3.org/1999/xlink">
<g id="Canvas" fill="none">
<g id="iconHomework">
<g id="Vector">
<path d="M 16.5 1.5L 16.5 16.5L 1.5 16.5L 1.5 1.5L 16.5 1.5ZM 18 0L 0 0L 0 18L 18 18L 18 0ZM 15 5.25L 9 5.25L 9 6L 15 6L 15 5.25ZM 15 9L 9 9L 9 9.75L 15 9.75L 15 9ZM 15 12.75L 9 12.75L 9 13.5L 15 13.5L 15 12.75ZM 7.113 4.272L 6.5805 3.75L 4.66575 5.70525L 3.5115 4.61625L 2.988 5.14875L 4.6755 6.75L 7.113 4.272ZM 7.113 8.022L 6.5805 7.5L 4.6665 9.45525L 3.51225 8.36625L 2.98875 8.898L 4.6755 10.5L 7.113 8.022ZM 7.113 11.772L 6.5805 11.25L 4.6665 13.2052L 3.51225 12.1163L 2.98875 12.648L 4.6755 14.25L 7.113 11.772Z" fill="white"/>
</g>
</g>
</g>
</svg>

