<svg width="17" height="17" viewBox="0 0 17 17" version="1.1" xmlns="http://www.w3.org/2000/svg" xmlns:xlink="http://www.w3.org/1999/xlink">
<title>help icon</title>
<desc>Created using Figma</desc>
<g id="Canvas" transform="translate(-110 -214)">
<g id="help icon">
<g id="Vector">
<use xlink:href="#path0_fill" transform="translate(110 214)" fill="#C4C4C4" fill-opacity="0.5"/>
</g>
</g>
</g>
<defs>
<path id="path0_fill" d="M 8.5 1.41667C 12.4057 1.41667 15.5833 4.59425 15.5833 8.5C 15.5833 12.4057 12.4057 15.5833 8.5 15.5833C 4.59425 15.5833 1.41667 12.4057 1.41667 8.5C 1.41667 4.59425 4.59425 1.41667 8.5 1.41667ZM 8.5 0C 3.80588 0 0 3.80588 0 8.5C 0 13.1941 3.80588 17 8.5 17C 13.1941 17 17 13.1941 17 8.5C 17 3.80588 13.1941 0 8.5 0ZM 9.38542 12.0417C 9.38542 12.5304 8.98946 12.9271 8.5 12.9271C 8.01196 12.9271 7.61458 12.5304 7.61458 12.0417C 7.61458 11.5529 8.01196 11.1562 8.5 11.1562C 8.98946 11.1562 9.38542 11.5529 9.38542 12.0417ZM 10.3721 4.95975C 9.94146 4.52342 9.299 4.28329 8.56517 4.28329C 7.021 4.28329 6.02225 5.38121 6.02225 7.08121L 7.44671 7.08121C 7.44671 6.02862 8.03392 5.65533 8.53612 5.65533C 8.98521 5.65533 9.46192 5.95354 9.50229 6.52375C 9.54621 7.12371 9.22604 7.42829 8.82088 7.81362C 7.82071 8.76492 7.80229 9.22533 7.80654 10.2701L 9.22675 10.2701C 9.21754 9.79979 9.248 9.418 9.88904 8.72738C 10.3686 8.21029 10.965 7.56712 10.977 6.58679C 10.9848 5.93229 10.7759 5.36917 10.3721 4.95975Z"/>
</defs>
</svg>
