<svg width="20" height="20" viewBox="0 0 20 20" version="1.1" xmlns="http://www.w3.org/2000/svg" xmlns:xlink="http://www.w3.org/1999/xlink">
<title>iconmonstr-user-6</title>
<desc>Created using Figma</desc>
<g id="Canvas" transform="translate(1199 236)">
<g id="iconmonstr-user-6">
<g id="Vector">
<use xlink:href="#path0_fill" transform="translate(-1198.2 -235.1)" fill="#D9DEE4"/>
</g>
</g>
</g>
<defs>
<path id="path0_fill" d="M 9.45 1.575C 11.6211 1.575 13.3875 3.34136 13.3875 5.51329C 13.3875 7.68364 11.6211 9.45079 9.45 9.45079C 7.27886 9.45079 5.5125 7.68364 5.5125 5.51329C 5.5125 3.34136 7.27886 1.575 9.45 1.575ZM 9.45 0C 6.40552 0 3.9375 2.46802 3.9375 5.51329C 3.9375 8.55697 6.40552 11.0258 9.45 11.0258C 12.4945 11.0258 14.9625 8.55697 14.9625 5.51329C 14.9625 2.46802 12.4945 6.9944e-16 9.45 6.9944e-16L 9.45 0ZM 14.4656 10.5155C 14.0742 10.9077 13.6332 11.2486 13.1599 11.5408C 15.4216 13.0166 16.6076 15.5437 17.0754 17.3258L 1.8081 17.3258C 2.25855 15.5224 3.42877 12.9922 5.72434 11.5314C 5.24948 11.2368 4.80926 10.8927 4.41866 10.4982C 1.06549 12.9174 0 17.1966 0 18.9L 18.9 18.9C 18.9 17.2132 17.766 12.9489 14.4656 10.5155Z"/>
</defs>
</svg>
