<svg width="18" height="17" viewBox="0 0 18 17" version="1.1" xmlns="http://www.w3.org/2000/svg" xmlns:xlink="http://www.w3.org/1999/xlink">
<title>iconPen</title>
<desc>Created using Figma</desc>
<g id="Canvas" transform="translate(-1004 -865)">
<g id="iconPen">
<g id="Vector">
<use xlink:href="#path0_fill" transform="translate(1004 865)" fill="#FFFFFF"/>
</g>
</g>
</g>
<defs>
<path id="path0_fill" d="M 11.859 3.41346C 11.6115 3.17192 11.625 2.79225 11.88 2.5585L 14.4818 0.174958C 14.6093 0.0587917 14.772 0 14.934 0C 15.0983 0 15.2625 0.0602083 15.387 0.182042L 11.859 3.41346ZM 7.58025 9.48529C 7.52775 9.53417 7.5 9.60004 7.5 9.66592C 7.5 9.80333 7.6185 9.91667 7.7655 9.91667C 7.83225 9.91667 7.899 9.89329 7.95075 9.84583L 8.388 9.44421L 8.01825 9.08367L 7.58025 9.48529ZM 11.2733 4.84429L 9.77775 6.2135C 8.97375 6.94946 8.5635 7.66275 8.18475 8.65796L 8.8455 9.30183C 9.90975 8.97529 10.677 8.6105 11.481 7.87383L 12.9765 6.50392L 11.2733 4.84429ZM 15.6353 0.624042L 11.7825 4.15296L 13.722 6.04492L 17.5755 2.51742C 17.8582 2.25817 18 1.91463 18 1.57037C 18 0.420042 16.524 -0.190542 15.6353 0.624042ZM 6.75 9.20833L 3.75 9.20833L 3.75 9.91667L 6.75 9.91667L 6.75 9.20833ZM 13.5 8.25208L 13.5 9.59296C 13.5 12.5021 9 11.3333 9 11.3333C 9 11.3333 10.1385 15.5833 7.0215 15.5833L 1.5 15.5833L 1.5 1.41667L 10.9718 1.41667L 12.5182 7.86408e-17L 0 7.86408e-17L 0 17L 7.64175 17C 10.014 17 15 11.8837 15 10.1901L 15 6.87013L 13.5 8.25208Z"/>
</defs>
</svg>
