<svg width="15" height="16" viewBox="0 0 15 16" version="1.1" xmlns="http://www.w3.org/2000/svg" xmlns:xlink="http://www.w3.org/1999/xlink">
<title>iconmonstr-school-3</title>
<desc>Created using Figma</desc>
<g id="Canvas" transform="translate(-1347 -1674)">
<g id="iconmonstr-school-3">
<g id="Vector">
<use xlink:href="#path0_fill" transform="translate(1347 1674)" fill="#FFFFFF"/>
</g>
</g>
</g>
<defs>
<path id="path0_fill" fill-rule="evenodd" d="M 4.70591 9.33333C 3.53182 8.40667 2.72727 6.688 2.72727 5.30867C 2.72727 3.246 4.19864 2.04867 5.58205 2.00133C 6.15545 1.99267 6.76091 2.134 7.21432 2.38133C 7.095 1.52933 6.705 0.875333 6.29796 0.409333L 7.23 0C 7.42295 0.271333 7.62 0.752667 7.74886 1.31933C 8.01 0.856 8.32705 0.478 8.75455 0.234C 9.21068 -0.0266667 9.96682 -0.0406667 10.4714 0.0526667C 10.3439 0.491333 10.078 1.06133 9.45477 1.436C 9.07159 1.666 8.45455 1.784 7.82932 1.738C 7.85795 1.92667 7.87909 2.12067 7.88864 2.316C 8.35364 2.07333 8.87045 1.99333 9.41795 2.00133C 10.8014 2.04867 12.2727 3.246 12.2727 5.30867C 12.2727 6.688 11.4682 8.40667 10.2941 9.33333L 15 9.33333L 15 10.6667L 1.70455 10.6667C 1.51636 10.6667 1.36364 10.816 1.36364 11C 1.36364 11.184 1.51636 11.3333 1.70455 11.3333L 15 11.3333L 15 12.6667L 2.38636 12.6667C 1.82182 12.6667 1.36364 13.1147 1.36364 13.6667C 1.36364 14.2187 1.82182 14.6667 2.38636 14.6667L 15 14.6667L 15 16L 2.38636 16C 1.06909 16 0 14.9547 0 13.6667C 0 13.1133 0.197727 12.6047 0.527045 12.2047C 0.2025 11.9013 0 11.4733 0 11C 0 10.08 0.763636 9.33333 1.70455 9.33333L 4.70591 9.33333ZM 15 14L 2.72727 14L 2.72727 13.3333L 15 13.3333L 15 14ZM 6.39273 3.6C 5.2725 4.41933 5.00523 5.9 6.10636 8C 5.59159 7.732 4.49045 6.63533 4.50273 5.37C 4.51364 4.25267 5.46614 3.55 6.39273 3.6Z"/>
</defs>
</svg>
