<svg width="19" height="26" viewBox="0 0 19 26" version="1.1" xmlns="http://www.w3.org/2000/svg" xmlns:xlink="http://www.w3.org/1999/xlink">
<title>iconPwd</title>
<desc>Created using Figma</desc>
<g id="Canvas" transform="translate(-32 -32)">
<g id="iconPwd">
<g id="Vector">
<use xlink:href="#path0_fill" transform="translate(32 32)" fill="#1ABB9C"/>
</g>
</g>
</g>
<defs>
<path id="path0_fill" d="M 7.38889 17.3333C 7.38889 16.1373 8.33467 15.1667 9.5 15.1667C 10.6653 15.1667 11.6111 16.1373 11.6111 17.3333C 11.6111 18.1328 11.1847 18.824 10.5556 19.1999L 10.5556 21.6667L 8.44444 21.6667L 8.44444 19.1999C 7.81533 18.824 7.38889 18.1328 7.38889 17.3333ZM 19 10.8333L 19 26L 0 26L 0 10.8333L 3.16667 10.8333L 3.16667 6.5C 3.16667 2.91092 6.00294 0 9.5 0C 12.9971 0 15.8333 2.91092 15.8333 6.5L 15.8333 10.8333L 19 10.8333ZM 5.27778 10.8333L 13.7222 10.8333L 13.7222 6.5C 13.7222 4.11017 11.8275 2.16667 9.5 2.16667C 7.1725 2.16667 5.27778 4.11017 5.27778 6.5L 5.27778 10.8333ZM 16.8889 13L 2.11111 13L 2.11111 23.8333L 16.8889 23.8333L 16.8889 13Z"/>
</defs>
</svg>
