<svg width="19" height="16" viewBox="0 0 19 16" version="1.1" xmlns="http://www.w3.org/2000/svg" xmlns:xlink="http://www.w3.org/1999/xlink">
<title>iconmonstr-book-19</title>
<desc>Created using Figma</desc>
<g id="Canvas" transform="translate(-1003 -810)">
<g id="iconmonstr-book-19">
<g id="Vector">
<use xlink:href="#path0_fill" transform="translate(1003 810)" fill="#FFFFFF"/>
</g>
</g>
</g>
<defs>
<path id="path0_fill" d="M 9.5 2.1648C 7.17408 0.7008 3.629 0.112 0 0L 0 14.1712C 3.11679 14.2672 6.17104 14.716 8.44471 15.7672C 9.11446 16.0776 9.88317 16.0776 10.5561 15.7672C 12.8298 14.716 15.8832 14.2672 19 14.1712L 19 0C 15.371 0.112 11.8259 0.7008 9.5 2.1648ZM 1.58333 12.648L 1.58333 1.6848C 5.66596 1.996 7.54221 2.8552 8.70833 3.552L 8.70833 14.0864C 7.50104 13.6496 4.97483 12.8832 1.58333 12.648ZM 17.4167 12.648C 14.026 12.8824 11.499 13.6496 10.2917 14.0872L 10.2917 3.5504C 11.442 2.8616 13.3237 1.9968 17.4167 1.6848L 17.4167 12.648ZM 15.8333 4.4768C 14.1819 4.7264 12.3096 5.2952 11.0833 5.8144L 11.0833 4.9632C 12.4038 4.4656 14.1558 3.9112 15.8333 3.6624L 15.8333 4.4768ZM 15.8333 6.9208C 14.1558 7.1696 12.4038 7.724 11.0833 8.2216L 11.0833 9.0728C 12.3096 8.5536 14.1819 7.984 15.8333 7.7344L 15.8333 6.9208ZM 15.8333 5.296C 14.1558 5.5448 12.4038 6.0992 11.0833 6.5968L 11.0833 7.448C 12.3096 6.9288 14.1819 6.3592 15.8333 6.1096L 15.8333 5.296ZM 15.8333 10.1704C 14.1558 10.4192 12.4038 10.9736 11.0833 11.4712L 11.0833 12.3224C 12.3096 11.8032 14.1819 11.2336 15.8333 10.984L 15.8333 10.1704ZM 15.8333 8.5456C 14.1558 8.7944 12.4038 9.3488 11.0833 9.8464L 11.0833 10.6976C 12.3096 10.1784 14.1819 9.6088 15.8333 9.3592L 15.8333 8.5456ZM 3.16667 3.6624C 4.84421 3.9112 6.59617 4.4656 7.91667 4.9632L 7.91667 5.8144C 6.69037 5.2952 4.81808 4.7256 3.16667 4.4768L 3.16667 3.6624ZM 3.16667 7.7344C 4.81808 7.984 6.69037 8.5528 7.91667 9.0728L 7.91667 8.2216C 6.59617 7.724 4.84421 7.1696 3.16667 6.9208L 3.16667 7.7344ZM 3.16667 6.1096C 4.81808 6.3592 6.69037 6.928 7.91667 7.448L 7.91667 6.5968C 6.59617 6.0992 4.84421 5.544 3.16667 5.296L 3.16667 6.1096ZM 3.16667 10.984C 4.81808 11.2336 6.69037 11.8024 7.91667 12.3224L 7.91667 11.4712C 6.59617 10.9736 4.84421 10.4192 3.16667 10.1704L 3.16667 10.984ZM 3.16667 9.3592C 4.81808 9.6088 6.69037 10.1776 7.91667 10.6976L 7.91667 9.8464C 6.59617 9.3488 4.84421 8.7944 3.16667 8.5456L 3.16667 9.3592Z"/>
</defs>
</svg>
