<svg width="24" height="24" viewBox="0 0 24 24" version="1.1" xmlns="http://www.w3.org/2000/svg" xmlns:xlink="http://www.w3.org/1999/xlink">
<title>iconLogin</title>
<desc>Created using Figma</desc>
<g id="Canvas" transform="translate(-30 33)">
<g id="iconLogin">
<g id="Vector">
<use xlink:href="#path0_fill" transform="translate(30.688 -32.2075)" fill="#1ABB9C"/>
</g>
</g>
</g>
<defs>
<path id="path0_fill" d="M 11.5 1.91667C 14.1421 1.91667 16.2917 4.06621 16.2917 6.70929C 16.2917 9.35046 14.1421 11.501 11.5 11.501C 8.85787 11.501 6.70833 9.35046 6.70833 6.70929C 6.70833 4.06621 8.85787 1.91667 11.5 1.91667ZM 11.5 0C 7.79508 0 4.79167 3.00342 4.79167 6.70929C 4.79167 10.4132 7.79508 13.4176 11.5 13.4176C 15.2049 13.4176 18.2083 10.4132 18.2083 6.70929C 18.2083 3.00342 15.2049 8.51171e-16 11.5 8.51171e-16L 11.5 0ZM 17.6036 12.7966C 17.1273 13.2739 16.5907 13.6888 16.0147 14.0444C 18.767 15.8403 20.2103 18.9156 20.7795 21.0843L 2.20033 21.0843C 2.7485 18.8897 4.17258 15.8106 6.96613 14.0329C 6.38825 13.6745 5.85254 13.2557 5.37721 12.7755C 1.29663 15.7195 0 20.9271 0 23L 23 23C 23 20.9473 21.62 15.7579 17.6036 12.7966Z"/>
</defs>
</svg>
