<svg width="18" height="17" viewBox="0 0 18 17" version="1.1" xmlns="http://www.w3.org/2000/svg" xmlns:xlink="http://www.w3.org/1999/xlink">
<title>iconmonstr-time-3</title>
<desc>Created using Figma</desc>
<g id="Canvas" transform="translate(-6322 -3070)">
<g id="iconmonstr-time-3">
<g id="Vector">
<use xlink:href="#path0_fill" transform="translate(6322.51 3070.32)" fill="#C4C4C4"/>
</g>
</g>
</g>
<defs>
<path id="path0_fill" d="M 8.30897 1.35922C 12.1269 1.35922 15.2331 4.40796 15.2331 8.15534C 15.2331 11.9027 12.1269 14.9515 8.30897 14.9515C 4.491 14.9515 1.38483 11.9027 1.38483 8.15534C 1.38483 4.40796 4.491 1.35922 8.30897 1.35922ZM 8.30897 0C 3.72034 0 0 3.65155 0 8.15534C 0 12.6591 3.72034 16.3107 8.30897 16.3107C 12.8976 16.3107 16.6179 12.6591 16.6179 8.15534C 16.6179 3.65155 12.8976 0 8.30897 0ZM 12.3582 8.46728C 12.4981 8.49311 12.4981 8.69359 12.3589 8.7201C 11.0385 8.96544 8.17326 9.47515 7.82567 9.47515C 7.32782 9.47515 6.92483 9.07961 6.92483 8.59097C 6.92483 8.24301 7.45799 4.88913 7.7038 3.53126C 7.72734 3.40078 7.91983 3.40825 7.9413 3.54078L 8.62333 7.78019L 12.3582 8.46728Z"/>
</defs>
</svg>
