<svg width="20" height="12" viewBox="0 0 20 12" fill="none" xmlns="http://www.w3.org/2000/svg">
<path d="M10.0125 1.71429C13.9717 1.71429 16.7317 4.296 17.9325 5.688C16.765 7.26257 14.005 10.2857 10.0125 10.2857C6.32917 10.2857 3.40417 7.25486 2.11417 5.65114C3.35833 4.23943 6.12833 1.71429 10.0125 1.71429V1.71429ZM10.0125 0C3.705 0 0 5.61514 0 5.61514C0 5.61514 4.02917 12 10.0125 12C16.4567 12 20 5.61514 20 5.61514C20 5.61514 16.4242 0 10.0125 0ZM10 2.57143C8.15833 2.57143 6.66667 4.10657 6.66667 6C6.66667 7.89343 8.15833 9.42857 10 9.42857C11.8408 9.42857 13.3333 7.89343 13.3333 6C13.3333 4.10657 11.8408 2.57143 10 2.57143ZM9.99667 5.99914C9.52667 6.48257 8.76417 6.48257 8.29333 5.99914C7.8225 5.51571 7.8225 4.73057 8.29333 4.24714C8.76333 3.76371 9.52583 3.76371 9.99667 4.24714C10.4675 4.73057 10.4675 5.51486 9.99667 5.99914Z" fill="white"/>
</svg>
