<svg width="18" height="19" viewBox="0 0 18 19" version="1.1" xmlns="http://www.w3.org/2000/svg" xmlns:xlink="http://www.w3.org/1999/xlink">
<title>icongear</title>
<desc>Created using Figma</desc>
<g id="Canvas" transform="translate(-1003 846)">
<g id="icongear">
<g id="Vector">
<use xlink:href="#path0_fill" transform="translate(1003 -846)" fill="#FFFFFF"/>
</g>
</g>
</g>
<defs>
<path id="path0_fill" d="M 18 11.2314L 18 7.76862C 16.389 7.16221 15.9555 7.13371 15.7297 6.55817C 15.5025 5.98104 15.792 5.63271 16.524 4.00663L 14.2042 1.558C 12.6847 2.32038 12.3383 2.63783 11.7863 2.39637C 11.241 2.15729 11.2102 1.69258 10.641 0L 7.35975 0C 6.78675 1.69733 6.75975 2.15729 6.213 2.39637C 5.649 2.64417 5.31075 2.31721 3.79575 1.558L 1.476 4.00663C 2.20875 5.6335 2.4975 5.98025 2.27025 6.55896C 2.04375 7.1345 1.6095 7.16379 0 7.76862L 0 11.2322C 1.60425 11.8338 2.04375 11.8655 2.27025 12.4418C 2.49825 13.0229 2.2095 13.3657 1.476 14.9934L 3.79575 17.442C 5.295 16.6899 5.64825 16.355 6.213 16.6036C 6.759 16.8427 6.786 17.3003 7.35975 19L 10.6403 19C 11.2087 17.313 11.2395 16.8443 11.793 16.6005C 12.3518 16.3566 12.6825 16.6788 14.2042 17.4412L 16.524 14.9926C 15.7927 13.3697 15.5025 13.0198 15.7297 12.441C 15.9548 11.8663 16.3897 11.837 18 11.2314ZM 14.3438 11.8362C 13.911 12.9398 14.2928 13.7821 14.7098 14.6688L 13.8967 15.527C 13.077 15.0971 12.276 14.6751 11.217 15.139C 10.17 15.599 9.8745 16.4793 9.576 17.4167L 8.4255 17.4167C 8.127 16.4785 7.83225 15.5982 6.78825 15.1406C 5.724 14.6751 4.908 15.105 4.104 15.527L 3.29175 14.6688C 3.7095 13.7837 4.09125 12.943 3.657 11.8346C 3.22275 10.7334 2.38875 10.4223 1.5 10.1072L 1.5 8.89358C 2.38875 8.5785 3.22275 8.26737 3.65625 7.16458C 4.08975 6.061 3.70725 5.21788 3.29025 4.33121L 4.10325 3.47304C 4.91475 3.89896 5.72475 4.32567 6.78825 3.85938C 7.83225 3.40258 8.127 2.52146 8.4255 1.58333L 9.576 1.58333C 9.8745 2.52146 10.17 3.40179 11.214 3.85938C 12.2782 4.32487 13.0935 3.895 13.8983 3.47304L 14.7113 4.33121C 14.2942 5.21867 13.9125 6.06258 14.3453 7.16537C 14.778 8.26658 15.612 8.57771 16.5015 8.89358L 16.5015 10.108C 15.6105 10.4231 14.775 10.7342 14.3438 11.8362ZM 9 7.125C 10.2405 7.125 11.25 8.19058 11.25 9.5C 11.25 10.8094 10.2405 11.875 9 11.875C 7.7595 11.875 6.75 10.8094 6.75 9.5C 6.75 8.19058 7.7595 7.125 9 7.125ZM 9 5.54167C 6.9285 5.54167 5.25 7.31342 5.25 9.5C 5.25 11.6866 6.9285 13.4583 9 13.4583C 11.0715 13.4583 12.75 11.6866 12.75 9.5C 12.75 7.31342 11.0715 5.54167 9 5.54167Z"/>
</defs>
</svg>
