<svg width="18" height="16" viewBox="0 0 18 16" version="1.1" xmlns="http://www.w3.org/2000/svg" xmlns:xlink="http://www.w3.org/1999/xlink">
<title>iconSchedule</title>
<desc>Created using Figma</desc>
<g id="Canvas" transform="translate(-1004 902)">
<g id="iconSchedule">
<g id="Vector">
<use xlink:href="#path0_fill" transform="translate(1004 -902)" fill="#FFFFFF"/>
</g>
</g>
</g>
<defs>
<path id="path0_fill" d="M 10.5 8.72727L 7.5 8.72727L 7.5 5.81818L 10.5 5.81818L 10.5 8.72727ZM 15 5.81818L 12 5.81818L 12 8.72727L 15 8.72727L 15 5.81818ZM 6 10.1818L 3 10.1818L 3 13.0909L 6 13.0909L 6 10.1818ZM 10.5 10.1818L 7.5 10.1818L 7.5 13.0909L 10.5 13.0909L 10.5 10.1818ZM 6 5.81818L 3 5.81818L 3 8.72727L 6 8.72727L 6 5.81818ZM 18 0L 18 16L 0 16L 0 0L 18 0ZM 12.3967 14.5164C 13.6087 13.8887 15.6593 11.9185 16.5 10.8378L 16.5 10.8247C 15.7785 11.3033 14.2665 11.7025 13.1407 11.4473C 13.2645 12.2378 13.038 13.888 12.3967 14.5164ZM 1.5 14.5455L 10.1917 14.5455C 12.6877 14.5455 11.94 10.2524 11.94 10.2524C 13.545 10.6371 16.5 10.4545 16.5 8.84L 16.5 4.36364L 1.5 4.36364L 1.5 14.5455Z"/>
</defs>
</svg>
