<svg width="40" height="33" viewBox="0 0 40 33" version="1.1" xmlns="http://www.w3.org/2000/svg" xmlns:xlink="http://www.w3.org/1999/xlink">
<title>Vector</title>
<desc>Created using Figma</desc>
<g id="Canvas" transform="translate(-4304 -2655)">
<g id="Vector">
<use xlink:href="#path0_fill" transform="translate(4304 2655)"/>
</g>
</g>
<defs>
<path id="path0_fill" d="M 20 4.4649C 15.1033 1.4454 7.64 0.231 0 0L 0 29.2281C 6.56167 29.4261 12.9917 30.3517 17.7783 32.5198C 19.1883 33.16 20.8067 33.16 22.2233 32.5198C 27.01 30.3517 33.4383 29.4261 40 29.2281L 40 0C 32.36 0.231 24.8967 1.4454 20 4.4649ZM 3.33333 26.0865L 3.33333 3.4749C 11.9283 4.11675 15.8783 5.88885 18.3333 7.326L 18.3333 29.0532C 15.7917 28.1523 10.4733 26.5716 3.33333 26.0865ZM 36.6667 26.0865C 29.5283 26.5699 24.2083 28.1523 21.6667 29.0548L 21.6667 7.3227C 24.0883 5.90205 28.05 4.1184 36.6667 3.4749L 36.6667 26.0865ZM 33.3333 9.2334C 29.8567 9.7482 25.915 10.9213 23.3333 11.9922L 23.3333 10.2366C 26.1133 9.2103 29.8017 8.06685 33.3333 7.5537L 33.3333 9.2334ZM 33.3333 14.2741C 29.8017 14.7873 26.1133 15.9308 23.3333 16.9571L 23.3333 18.7126C 25.915 17.6418 29.8567 16.467 33.3333 15.9522L 33.3333 14.2741ZM 33.3333 10.923C 29.8017 11.4361 26.1133 12.5796 23.3333 13.6059L 23.3333 15.3615C 25.915 14.2907 29.8567 13.1158 33.3333 12.6011L 33.3333 10.923ZM 33.3333 20.9764C 29.8017 21.4896 26.1133 22.6331 23.3333 23.6594L 23.3333 25.4149C 25.915 24.3441 29.8567 23.1693 33.3333 22.6545L 33.3333 20.9764ZM 33.3333 17.6253C 29.8017 18.1385 26.1133 19.2819 23.3333 20.3082L 23.3333 22.0638C 25.915 20.9929 29.8567 19.8181 33.3333 19.3034L 33.3333 17.6253ZM 6.66667 7.5537C 10.1983 8.06685 13.8867 9.2103 16.6667 10.2366L 16.6667 11.9922C 14.085 10.9213 10.1433 9.74655 6.66667 9.2334L 6.66667 7.5537ZM 6.66667 15.9522C 10.1433 16.467 14.085 17.6402 16.6667 18.7126L 16.6667 16.9571C 13.8867 15.9308 10.1983 14.7873 6.66667 14.2741L 6.66667 15.9522ZM 6.66667 12.6011C 10.1433 13.1158 14.085 14.289 16.6667 15.3615L 16.6667 13.6059C 13.8867 12.5796 10.1983 11.4345 6.66667 10.923L 6.66667 12.6011ZM 6.66667 22.6545C 10.1433 23.1693 14.085 24.3424 16.6667 25.4149L 16.6667 23.6594C 13.8867 22.6331 10.1983 21.4896 6.66667 20.9764L 6.66667 22.6545ZM 6.66667 19.3034C 10.1433 19.8181 14.085 20.9913 16.6667 22.0638L 16.6667 20.3082C 13.8867 19.2819 10.1983 18.1385 6.66667 17.6253L 6.66667 19.3034Z"/>
</defs>
</svg>
