<svg width="17" height="21" viewBox="0 0 17 21" version="1.1" xmlns="http://www.w3.org/2000/svg" xmlns:xlink="http://www.w3.org/1999/xlink">
<title>db icon</title>
<desc>Created using Figma</desc>
<g id="Canvas" transform="translate(1412 235)">
<g id="db icon">
<g id="Vector">
<use xlink:href="#path0_fill" transform="translate(-1411.5 -234.2)" fill="#1ABB9C"/>
</g>
</g>
</g>
<defs>
<path id="path0_fill" d="M 8.10648 7.32747e-16C 4.68423 7.32747e-16 0 0.825825 0 3.59783L 0 16.2013C 0 18.975 5.02929 19.8 8.10648 19.8C 11.1707 19.8 16.2 18.9742 16.2 16.2022L 16.2 3.59783C 16.2 0.825 11.3684 0 8.10648 0L 8.10648 7.32747e-16ZM 8.10648 1.65C 11.0533 1.65 14.58 2.39992 14.58 3.59783C 14.58 4.90215 10.4458 5.54565 8.10648 5.54565C 5.34276 5.54647 1.62 4.79903 1.62 3.59783C 1.62 2.29102 5.51772 1.65 8.10648 1.65ZM 14.58 15.9934C 14.58 17.438 10.4458 18.15 8.10648 18.15C 5.34276 18.15 1.62 17.3233 1.62 15.9934L 1.62 14.3105C 3.33477 15.4176 5.8077 15.7789 8.10648 15.7789C 10.398 15.7789 12.866 15.4176 14.58 14.3105L 14.58 15.9934ZM 14.58 11.9732C 14.58 13.417 10.4458 14.1298 8.10648 14.1298C 5.34276 14.129 1.62 13.3031 1.62 11.9732L 1.62 10.0229C 3.33396 11.1292 5.8077 11.4914 8.10648 11.4914C 10.4061 11.4914 12.8701 11.1268 14.58 10.0229L 14.58 11.9732ZM 8.10648 9.8406C 5.33142 9.8406 1.62 9.01065 1.62 7.68405L 1.62 5.72797C 3.33477 6.83512 5.8077 7.19647 8.10648 7.19647C 10.398 7.19647 12.866 6.83512 14.58 5.72797L 14.58 7.68487C 14.58 9.1311 10.4239 9.8406 8.10648 9.8406Z"/>
</defs>
</svg>
