<svg width="18" height="18" viewBox="0 0 18 18" version="1.1" xmlns="http://www.w3.org/2000/svg" xmlns:xlink="http://www.w3.org/1999/xlink">
<title>iconTeacher</title>
<desc>Created using Figma</desc>
<g id="Canvas" transform="translate(-1005 1075)">
<g id="iconTeacher">
<g id="Vector">
<use xlink:href="#path0_fill" transform="translate(1005 -1075)" fill="#FFFFFF"/>
</g>
</g>
</g>
<defs>
<path id="path0_fill" d="M 15.6171 13.572C 13.0378 12.9765 10.6362 12.4545 11.7995 10.2585C 15.3389 3.5745 12.7378 0 9.00037 0C 5.18947 0 2.65211 3.71175 6.20126 10.2585C 7.39906 12.4672 4.90745 12.9893 2.3836 13.572C 0.149256 14.088 0 15.1793 0 17.0693L 0.00375016 18L 7.86633 18L 8.39435 15.75L 9.60565 15.75L 10.1337 18L 17.9962 18L 18 17.0693C 18.0007 15.1793 17.8515 14.088 15.6171 13.572ZM 9.44364 15L 8.57061 15L 7.88808 13.5L 10.1337 13.5L 9.44364 15Z"/>
</defs>
</svg>
