<svg width="33" height="22" viewBox="0 0 33 22" version="1.1" xmlns="http://www.w3.org/2000/svg" xmlns:xlink="http://www.w3.org/1999/xlink">
<title>Vector</title>
<desc>Created using Figma</desc>
<g id="Canvas" transform="translate(-3704 1187)">
<g id="Vector">
<use xlink:href="#path0_fill" transform="translate(3704 -1187)" fill="#2A3F54"/>
</g>
</g>
<defs>
<path id="path0_fill" d="M 13.9123 16.588C 17.0651 15.8606 20.0007 15.2226 18.579 12.5386C 14.2533 4.36838 17.4322 0 22 0C 26.6585 0 29.7605 4.53613 25.421 12.5386C 23.9566 15.2391 27.0009 15.8757 30.0877 16.588C 32.8185 17.2191 33 18.5542 33 20.8656L 32.9959 22L 11.0041 22C 11.0041 18.9805 10.7621 17.3154 13.9123 16.588ZM 0.00275 22L 8.25412 22C 8.21562 13.0047 12.3723 16.9166 12.3723 9.76112C 12.3723 6.99875 10.5696 5.5 8.25 5.5C 4.8235 5.5 2.43925 8.77662 5.68425 14.9036C 6.74987 16.9166 4.54988 17.3951 2.18488 17.941C 0.136125 18.414 0 19.415 0 21.1489L 0.00275 22Z"/>
</defs>
</svg>
